HIERARCHY
ROOT Hips
{
	OFFSET 0.00000 0.00000 0.00000
	CHANNELS 6 Xposition Yposition Zposition Zrotation Yrotation Xrotation 
	JOINT LHipJoint
	{
		OFFSET 0 0 0
		CHANNELS 3 Zrotation Yrotation Xrotation
		JOINT LeftUpLeg
		{
			OFFSET 1.42489 -1.84941 0.69647
			CHANNELS 3 Zrotation Yrotation Xrotation
			JOINT LeftLeg
			{
				OFFSET 2.44443 -6.71602 0.00000
				CHANNELS 3 Zrotation Yrotation Xrotation
				JOINT LeftFoot
				{
					OFFSET 2.62838 -7.22137 0.00000
					CHANNELS 3 Zrotation Yrotation Xrotation
					JOINT LeftToeBase
					{
						OFFSET 0.24036 -0.66037 2.29953
						CHANNELS 3 Zrotation Yrotation Xrotation
						End Site
						{
							OFFSET 0.00000 -0.00000 1.19837
						}
					}
				}
			}
		}
	}
	JOINT RHipJoint
	{
		OFFSET 0 0 0
		CHANNELS 3 Zrotation Yrotation Xrotation
		JOINT RightUpLeg
		{
			OFFSET -1.37055 -1.84941 0.69647
			CHANNELS 3 Zrotation Yrotation Xrotation
			JOINT RightLeg
			{
				OFFSET -2.54834 -7.00152 0.00000
				CHANNELS 3 Zrotation Yrotation Xrotation
				JOINT RightFoot
				{
					OFFSET -2.65692 -7.29983 0.00000
					CHANNELS 3 Zrotation Yrotation Xrotation
					JOINT RightToeBase
					{
						OFFSET -0.18839 -0.51760 2.29390
						CHANNELS 3 Zrotation Yrotation Xrotation
						End Site
						{
							OFFSET -0.00000 -0.00000 1.18261
						}
					}
				}
			}
		}
	}
	JOINT LowerBack
	{
		OFFSET 0 0 0
		CHANNELS 3 Zrotation Yrotation Xrotation
		JOINT Spine
		{
			OFFSET 0.05220 2.15489 0.05011
			CHANNELS 3 Zrotation Yrotation Xrotation
			JOINT Spine1
			{
				OFFSET -0.07653 2.14219 -0.05668
				CHANNELS 3 Zrotation Yrotation Xrotation
				JOINT Neck
				{
					OFFSET 0 0 0
					CHANNELS 3 Zrotation Yrotation Xrotation
					JOINT Neck1
					{
						OFFSET 0.01370 1.58638 0.01447
						CHANNELS 3 Zrotation Yrotation Xrotation
						JOINT Head
						{
							OFFSET 0.23548 1.54190 -0.21747
							CHANNELS 3 Zrotation Yrotation Xrotation
							End Site
							{
								OFFSET 0.07132 1.59823 -0.08163
							}
						}
					}
				}
				JOINT LeftShoulder
				{
					OFFSET 0 0 0
					CHANNELS 3 Zrotation Yrotation Xrotation
					JOINT LeftArm
					{
						OFFSET 3.47056 1.45357 -0.58896
						CHANNELS 3 Zrotation Yrotation Xrotation
						JOINT LeftForeArm
						{
							OFFSET 5.19069 -0.00000 0.00000
							CHANNELS 3 Zrotation Yrotation Xrotation
							JOINT LeftHand
							{
								OFFSET 3.30016 -0.00000 0.00000
								CHANNELS 3 Zrotation Yrotation Xrotation
								JOINT LeftFingerBase
								{
									OFFSET 0 0 0
									CHANNELS 3 Zrotation Yrotation Xrotation
									JOINT LeftHandIndex1
									{
										OFFSET 0.70770 -0.00000 0.00000
										CHANNELS 3 Zrotation Yrotation Xrotation
										End Site
										{
											OFFSET 0.57056 -0.00000 0.00000
										}
									}
								}
								JOINT LThumb
								{
									OFFSET 0 0 0
									CHANNELS 3 Zrotation Yrotation Xrotation
									End Site
									{
										OFFSET 0.57928 -0.00000 0.57928
									}
								}
							}
						}
					}
				}
				JOINT RightShoulder
				{
					OFFSET 0 0 0
					CHANNELS 3 Zrotation Yrotation Xrotation
					JOINT RightArm
					{
						OFFSET -2.89018 2.03305 -0.26731
						CHANNELS 3 Zrotation Yrotation Xrotation
						JOINT RightForeArm
						{
							OFFSET -5.23924 -0.00000 0.00000
							CHANNELS 3 Zrotation Yrotation Xrotation
							JOINT RightHand
							{
								OFFSET -3.32953 -0.00000 0.00000
								CHANNELS 3 Zrotation Yrotation Xrotation
								JOINT RightFingerBase
								{
									OFFSET 0 0 0
									CHANNELS 3 Zrotation Yrotation Xrotation
									JOINT RightHandIndex1
									{
										OFFSET -0.60741 -0.00000 0.00000
										CHANNELS 3 Zrotation Yrotation Xrotation
										End Site
										{
											OFFSET -0.48971 -0.00000 0.00000
										}
									}
								}
								JOINT RThumb
								{
									OFFSET 0 0 0
									CHANNELS 3 Zrotation Yrotation Xrotation
									End Site
									{
										OFFSET -0.49719 -0.00000 0.49719
									}
								}
							}
						}
					}
				}
			}
		}
	}
}
MOTION
Frames: 5
Frame Time: .0083333
7.3695 13.6424 25.4348 -8.8445 -38.9838 5.9792 0.0000 0.0000 0.0000 13.3928 10.1837 -52.0918 7.5636 15.7887 50.9750 -0.1699 -8.2420 7.1206 0.9512 -6.2111 -17.3981 0.0000 0.0000 0.0000 -6.1339 -19.4261 -17.3897 -11.5215 -18.1809 64.4637 -1.9392 -5.4591 -28.7220 -1.2585 7.1115 -20.0462 2.6186 4.9413 8.4033 -7.7577 6.5754 4.2694 -10.1481 3.4434 1.0269 -8.6617 -5.2600 0.6194 19.9798 -9.8937 15.3920 7.3777 -4.3926 5.8788 -0.0000 0.0000 0.0000 45.2790 -18.3419 -20.2230 114.2480 -57.6574 -80.8343 -0.0000 0.0000 -56.7608 -46.7377 4.8231 -5.1053 -7.1250 0.0000 -0.0000 -45.9591 24.6359 36.3546 -0.0000 0.0000 0.0000 -60.4011 28.1901 -62.2995 -25.1254 36.3319 -8.3641 0.0000 -0.0000 -11.1572 -30.2200 -6.6870 3.8803 7.1250 -0.0000 -0.0000 -2.9582 -37.6918 -0.5327
7.4103 13.6036 25.3975 -8.5571 -39.3505 5.6102 0.0000 0.0000 0.0000 13.1959 10.4396 -52.2031 7.6584 15.8622 51.3229 -0.1687 -8.2472 7.1888 0.9255 -6.1289 -17.1590 0.0000 0.0000 0.0000 -6.6570 -19.5140 -18.0937 -11.8107 -18.3095 65.3877 -1.9268 -5.3758 -28.5962 -1.2667 7.1339 -20.1126 2.7901 5.2090 8.6338 -7.4449 6.9642 4.8407 -9.9106 3.6714 1.5601 -8.5312 -5.6922 -0.1745 19.6507 -10.3416 14.9850 7.1690 -4.5817 5.9490 0.0000 -0.0000 0.0000 45.4725 -15.8521 -21.7718 111.3883 -58.1989 -78.4108 -0.0000 0.0000 -55.8219 -46.0355 5.0455 -5.2101 -7.1250 0.0000 -0.0000 -46.0840 25.3721 35.0282 0.0000 -0.0000 0.0000 -61.1274 28.5855 -60.8732 -20.6957 31.4714 -5.8903 0.0000 -0.0000 -6.1345 -20.2510 -9.1674 3.3639 7.1250 -0.0000 -0.0000 5.8392 -39.6749 0.7694
7.4520 13.5625 25.3583 -8.2862 -39.7060 5.2207 0.0000 0.0000 0.0000 13.0291 10.6827 -52.2884 7.7522 15.9340 51.6653 -0.1724 -8.3196 7.2229 0.9168 -6.1007 -17.0769 0.0000 0.0000 0.0000 -7.1844 -19.6945 -18.7731 -12.0974 -18.4315 66.2972 -1.9227 -5.2517 -28.5034 -1.2888 7.1933 -20.2895 3.0528 5.5625 9.0549 -7.0009 7.4590 4.9420 -9.6338 3.9213 1.5020 -9.2451 -5.9259 0.8327 19.7878 -10.5628 14.2369 7.3432 -4.8006 5.6153 0.0000 -0.0000 0.0000 45.4588 -14.7039 -23.2166 107.6032 -58.7961 -75.1832 -0.0000 0.0000 -53.6775 -45.1787 5.4561 -5.4653 -7.1250 0.0000 -0.0000 -46.2824 26.3621 33.2887 0.0000 -0.0000 0.0000 -60.4457 29.5107 -56.6673 -18.3293 28.5768 -4.7057 0.0000 -0.0000 -0.7439 -7.5965 -10.3840 1.3770 7.1250 -0.0000 -0.0000 16.9237 -39.8750 2.2113
7.4948 13.5214 25.3202 -8.0164 -40.0017 4.7987 0.0000 0.0000 0.0000 12.8720 10.8540 -52.3314 7.8392 15.9997 51.9814 -0.1731 -8.3476 7.2639 0.8790 -5.9769 -16.7174 0.0000 0.0000 0.0000 -7.7343 -19.9533 -19.3471 -12.3658 -18.5411 67.1438 -1.9460 -4.9072 -28.4786 -1.2407 7.0630 -19.9021 3.3515 5.7632 9.3760 -6.6475 7.7594 5.2856 -9.4465 4.0914 1.7366 -9.4496 -6.1326 1.0851 19.7163 -10.7198 13.5458 7.3377 -4.9249 5.3925 -0.0000 -0.0000 0.0000 45.6974 -12.7950 -24.7176 103.5857 -59.2910 -71.7376 -0.0000 0.0000 -51.0291 -44.0435 5.4846 -5.2813 -7.1250 0.0000 -0.0000 -46.2425 27.0617 31.7280 -0.0000 -0.0000 0.0000 -59.6899 30.6494 -53.5459 -16.9140 26.7443 -4.0486 0.0000 0.0000 7.2777 7.1405 -8.9964 -1.1222 7.1250 -0.0000 -0.0000 28.4237 -37.4046 5.9071
7.5400 13.4803 25.2808 -7.7053 -40.2527 4.3212 0.0000 0.0000 0.0000 12.6945 10.9432 -52.3196 7.9175 16.0582 52.2648 -0.1739 -8.3607 7.2670 0.8324 -5.8204 -16.2641 0.0000 0.0000 0.0000 -8.3329 -20.2939 -19.9106 -12.6248 -18.6425 67.9561 -1.9477 -4.7464 -28.4081 -1.2688 7.1395 -20.1293 3.5679 5.8352 9.8148 -6.3107 7.8775 5.5669 -9.2432 4.1587 1.7968 -9.2218 -6.2931 1.0596 19.1096 -10.7936 13.2015 7.0773 -4.9803 5.2616 -0.0000 0.0000 0.0000 45.8669 -11.5421 -26.1430 98.4010 -59.7316 -67.2689 -0.0000 0.0000 -47.3203 -42.6720 5.1609 -4.7404 -7.1250 0.0000 -0.0000 -45.9466 27.4658 30.3901 -0.0000 0.0000 0.0000 -58.1748 31.4949 -48.4054 -16.9589 26.8036 -4.0688 0.0000 0.0000 14.2625 22.4023 -6.1604 -2.5329 7.1250 -0.0000 -0.0000 38.0447 -33.4662 13.4839
